<?xml version="1.0" encoding="UTF-8"?>
<svg xmlns="http://www.w3.org/2000/svg" xmlns:xlink="http://www.w3.org/1999/xlink" width="25px" height="25px" viewBox="0 0 25 25" version="1.1">
<defs>
<radialGradient id="radial0" gradientUnits="userSpaceOnUse" cx="12" cy="12" fx="-0.863" fy="29.631001" r="35.57" gradientTransform="matrix(1.041667,0,0,1.041667,0,0)">
<stop offset="0.17" style="stop-color:rgb(100%,78.823529%,0%);stop-opacity:1;"/>
<stop offset="0.2" style="stop-color:rgb(100%,67.843137%,8.235294%);stop-opacity:1;"/>
<stop offset="0.3" style="stop-color:rgb(100%,33.72549%,34.509804%);stop-opacity:1;"/>
<stop offset="0.34" style="stop-color:rgb(100%,20%,44.705882%);stop-opacity:1;"/>
<stop offset="0.43" style="stop-color:rgb(92.54902%,15.294118%,60%);stop-opacity:1;"/>
<stop offset="0.49" style="stop-color:rgb(87.45098%,12.54902%,70.196078%);stop-opacity:1;"/>
<stop offset="0.61" style="stop-color:rgb(9.411765%,12.54902%,94.509804%);stop-opacity:1;"/>
<stop offset="0.62" style="stop-color:rgb(0%,12.54902%,97.647059%);stop-opacity:1;"/>
</radialGradient>
</defs>
<g id="surface1">
<path style=" stroke:none;fill-rule:nonzero;fill:url(#radial0);" d="M 1.042969 12.5 C 1.042969 4.167969 4.167969 1.042969 12.5 1.042969 C 20.832031 1.042969 23.957031 4.167969 23.957031 12.5 C 23.957031 20.832031 20.832031 23.957031 12.5 23.957031 C 4.167969 23.957031 1.042969 20.832031 1.042969 12.5 "/>
<path style=" stroke:none;fill-rule:nonzero;fill:rgb(100%,100%,100%);fill-opacity:1;" d="M 12.5 15.980469 L 12.3125 15.980469 C 10.542969 15.867188 9.132812 14.457031 9.019531 12.6875 C 8.96875 11.734375 9.308594 10.796875 9.96875 10.105469 C 10.636719 9.429688 11.550781 9.054688 12.5 9.0625 C 13.65625 9.0625 14.738281 9.636719 15.386719 10.59375 C 15.769531 11.15625 15.976562 11.820312 15.980469 12.5 C 15.988281 13.449219 15.613281 14.363281 14.9375 15.03125 C 14.277344 15.652344 13.40625 15.992188 12.5 15.980469 Z M 12.5 10.355469 C 11.921875 10.371094 11.375 10.621094 10.984375 11.046875 C 10.59375 11.472656 10.386719 12.039062 10.417969 12.613281 C 10.472656 13.707031 11.347656 14.578125 12.4375 14.636719 C 13.015625 14.648438 13.574219 14.429688 13.988281 14.03125 C 14.402344 13.628906 14.640625 13.078125 14.644531 12.5 C 14.640625 12.074219 14.515625 11.65625 14.28125 11.300781 C 13.878906 10.710938 13.214844 10.359375 12.5 10.355469 Z M 17.105469 8.730469 C 17.105469 9.1875 16.730469 9.5625 16.269531 9.5625 C 15.8125 9.5625 15.4375 9.1875 15.4375 8.730469 C 15.4375 8.269531 15.8125 7.894531 16.269531 7.894531 C 16.382812 7.898438 16.492188 7.921875 16.59375 7.96875 C 16.902344 8.097656 17.101562 8.398438 17.105469 8.730469 Z M 17.105469 8.730469 "/>
<path style=" stroke:none;fill-rule:nonzero;fill:rgb(100%,100%,100%);fill-opacity:1;" d="M 15.238281 19.417969 L 9.761719 19.417969 C 7.460938 19.417969 5.59375 17.550781 5.59375 15.25 L 5.59375 9.761719 C 5.59375 7.460938 7.460938 5.59375 9.761719 5.59375 L 15.238281 5.59375 C 17.539062 5.59375 19.40625 7.460938 19.40625 9.761719 L 19.40625 15.238281 C 19.410156 16.347656 18.972656 17.410156 18.191406 18.191406 C 17.40625 18.976562 16.347656 19.417969 15.238281 19.417969 Z M 9.761719 6.917969 C 8.191406 6.921875 6.921875 8.191406 6.917969 9.761719 L 6.917969 15.238281 C 6.921875 16.808594 8.191406 18.078125 9.761719 18.082031 L 15.238281 18.082031 C 16.808594 18.078125 18.078125 16.808594 18.082031 15.238281 L 18.082031 9.761719 C 18.078125 8.191406 16.808594 6.921875 15.238281 6.917969 Z M 9.761719 6.917969 "/>
</g>
</svg>
