<?xml version="1.0" encoding="UTF-8"?>
<svg xmlns="http://www.w3.org/2000/svg" xmlns:xlink="http://www.w3.org/1999/xlink" width="27px" height="27px" viewBox="0 0 27 27" version="1.1">
<g id="surface1">
<path style=" stroke:none;fill-rule:evenodd;fill:rgb(3.921569%,40.000001%,76.078433%);fill-opacity:1;" d="M 1.5 0 L 25.5 0 C 26.328125 0 27 0.671875 27 1.5 L 27 25.5 C 27 26.328125 26.328125 27 25.5 27 L 1.5 27 C 0.671875 27 0 26.328125 0 25.5 L 0 1.5 C 0 0.671875 0.671875 0 1.5 0 Z M 1.5 0 "/>
<path style=" stroke:none;fill-rule:evenodd;fill:rgb(100%,100%,100%);fill-opacity:1;" d="M 4.925781 10.441406 L 8.535156 10.441406 L 8.535156 22.050781 L 4.925781 22.050781 Z M 6.734375 4.671875 C 7.882812 4.671875 8.824219 5.609375 8.824219 6.761719 C 8.824219 7.917969 7.882812 8.855469 6.734375 8.855469 C 5.976562 8.867188 5.269531 8.472656 4.886719 7.820312 C 4.503906 7.167969 4.503906 6.359375 4.886719 5.703125 C 5.269531 5.054688 5.976562 4.65625 6.734375 4.671875 Z M 10.796875 10.441406 L 14.261719 10.441406 L 14.261719 12.027344 L 14.308594 12.027344 C 14.792969 11.117188 15.964844 10.15625 17.722656 10.15625 C 21.375 10.15625 22.050781 12.558594 22.050781 15.683594 L 22.050781 22.050781 L 18.445312 22.050781 L 18.445312 16.410156 C 18.445312 15.058594 18.421875 13.328125 16.570312 13.328125 C 14.691406 13.328125 14.40625 14.796875 14.40625 16.308594 L 14.40625 22.050781 L 10.796875 22.050781 Z M 10.796875 10.441406 "/>
</g>
</svg>
