<?xml version="1.0" encoding="UTF-8"?>
<svg xmlns="http://www.w3.org/2000/svg" xmlns:xlink="http://www.w3.org/1999/xlink" width="26px" height="26px" viewBox="0 0 26 26" version="1.1">
<g id="surface1">
<path style=" stroke:none;fill-rule:evenodd;fill:rgb(3.921569%,40.000001%,76.078433%);fill-opacity:1;" d="M 1.441406 0 L 24.558594 0 C 25.351562 0 26 0.648438 26 1.441406 L 26 24.558594 C 26 25.351562 25.351562 26 24.558594 26 L 1.441406 26 C 0.648438 26 0 25.351562 0 24.558594 L 0 1.441406 C 0 0.648438 0.648438 0 1.441406 0 Z M 1.441406 0 "/>
<path style=" stroke:none;fill-rule:evenodd;fill:rgb(100%,100%,100%);fill-opacity:1;" d="M 4.742188 10.054688 L 8.21875 10.054688 L 8.21875 21.234375 L 4.742188 21.234375 Z M 6.484375 4.5 C 7.589844 4.5 8.496094 5.398438 8.496094 6.511719 C 8.496094 7.625 7.589844 8.527344 6.484375 8.527344 C 5.753906 8.539062 5.074219 8.160156 4.707031 7.53125 C 4.335938 6.902344 4.335938 6.125 4.707031 5.492188 C 5.074219 4.867188 5.753906 4.484375 6.484375 4.5 Z M 10.398438 10.054688 L 13.730469 10.054688 L 13.730469 11.582031 L 13.777344 11.582031 C 14.246094 10.707031 15.375 9.78125 17.066406 9.78125 C 20.582031 9.78125 21.234375 12.09375 21.234375 15.101562 L 21.234375 21.234375 L 17.761719 21.234375 L 17.761719 15.800781 C 17.761719 14.503906 17.738281 12.835938 15.957031 12.835938 C 14.148438 12.835938 13.871094 14.25 13.871094 15.703125 L 13.871094 21.234375 L 10.398438 21.234375 Z M 10.398438 10.054688 "/>
</g>
</svg>
