<?xml version="1.0" encoding="UTF-8"?>
<svg xmlns="http://www.w3.org/2000/svg" xmlns:xlink="http://www.w3.org/1999/xlink" width="24px" height="24px" viewBox="0 0 24 24" version="1.1">
<g id="surface1">
<path style=" stroke:none;fill-rule:evenodd;fill:rgb(3.921569%,40.000001%,76.078433%);fill-opacity:1;" d="M 1.332031 0 L 22.667969 0 C 23.402344 0 24 0.597656 24 1.332031 L 24 22.667969 C 24 23.402344 23.402344 24 22.667969 24 L 1.332031 24 C 0.597656 24 0 23.402344 0 22.667969 L 0 1.332031 C 0 0.597656 0.597656 0 1.332031 0 Z M 1.332031 0 "/>
<path style=" stroke:none;fill-rule:evenodd;fill:rgb(100%,100%,100%);fill-opacity:1;" d="M 4.378906 9.28125 L 7.585938 9.28125 L 7.585938 19.601562 L 4.378906 19.601562 Z M 5.984375 4.152344 C 7.007812 4.152344 7.84375 4.984375 7.84375 6.011719 C 7.84375 7.039062 7.007812 7.871094 5.984375 7.871094 C 5.3125 7.882812 4.683594 7.53125 4.34375 6.953125 C 4.003906 6.371094 4.003906 5.652344 4.34375 5.070312 C 4.683594 4.492188 5.3125 4.140625 5.984375 4.152344 Z M 9.597656 9.28125 L 12.675781 9.28125 L 12.675781 10.691406 L 12.71875 10.691406 C 13.148438 9.882812 14.191406 9.027344 15.753906 9.027344 C 19 9.027344 19.601562 11.164062 19.601562 13.941406 L 19.601562 19.601562 L 16.394531 19.601562 L 16.394531 14.585938 C 16.394531 13.386719 16.375 11.847656 14.730469 11.847656 C 13.058594 11.847656 12.804688 13.152344 12.804688 14.496094 L 12.804688 19.601562 L 9.597656 19.601562 Z M 9.597656 9.28125 "/>
</g>
</svg>
