<?xml version="1.0" encoding="UTF-8"?>
<svg xmlns="http://www.w3.org/2000/svg" xmlns:xlink="http://www.w3.org/1999/xlink" width="27px" height="27px" viewBox="0 0 27 27" version="1.1">
<g id="surface1">
<path style=" stroke:none;fill-rule:evenodd;fill:rgb(1.960784%,1.960784%,1.960784%);fill-opacity:1;" d="M 25.3125 5.0625 C 25.3125 3.199219 23.800781 1.6875 21.9375 1.6875 L 5.0625 1.6875 C 3.199219 1.6875 1.6875 3.199219 1.6875 5.0625 L 1.6875 21.9375 C 1.6875 23.800781 3.199219 25.3125 5.0625 25.3125 L 21.9375 25.3125 C 23.800781 25.3125 25.3125 23.800781 25.3125 21.9375 Z M 25.3125 5.0625 "/>
<path style=" stroke:none;fill-rule:nonzero;fill:rgb(100%,100%,100%);fill-opacity:1;" d="M 6.359375 20.367188 L 8.046875 20.367188 L 12.550781 15.246094 L 16.46875 20.359375 L 21.050781 20.359375 L 15.039062 12.410156 L 20.128906 6.632812 L 18.441406 6.632812 L 14.257812 11.382812 L 10.671875 6.636719 L 5.945312 6.636719 L 11.761719 14.226562 L 6.351562 20.371094 Z M 8.511719 7.898438 L 10.050781 7.898438 L 18.511719 19.09375 L 17.097656 19.09375 L 8.519531 7.898438 Z M 8.511719 7.898438 "/>
</g>
</svg>
