<?xml version="1.0" encoding="UTF-8"?>
<svg xmlns="http://www.w3.org/2000/svg" xmlns:xlink="http://www.w3.org/1999/xlink" width="25px" height="25px" viewBox="0 0 25 25" version="1.1">
<g id="surface1">
<path style=" stroke:none;fill-rule:evenodd;fill:rgb(1.960784%,1.960784%,1.960784%);fill-opacity:1;" d="M 23.4375 4.6875 C 23.4375 2.960938 22.039062 1.5625 20.3125 1.5625 L 4.6875 1.5625 C 2.960938 1.5625 1.5625 2.960938 1.5625 4.6875 L 1.5625 20.3125 C 1.5625 22.039062 2.960938 23.4375 4.6875 23.4375 L 20.3125 23.4375 C 22.039062 23.4375 23.4375 22.039062 23.4375 20.3125 Z M 23.4375 4.6875 "/>
<path style=" stroke:none;fill-rule:nonzero;fill:rgb(100%,100%,100%);fill-opacity:1;" d="M 5.886719 18.859375 L 7.449219 18.859375 L 11.621094 14.117188 L 15.25 18.851562 L 19.492188 18.851562 L 13.925781 11.492188 L 18.636719 6.140625 L 17.074219 6.140625 L 13.203125 10.539062 L 9.882812 6.144531 L 5.503906 6.144531 L 10.890625 13.171875 L 5.882812 18.863281 Z M 7.882812 7.3125 L 9.304688 7.3125 L 17.140625 17.679688 L 15.832031 17.679688 L 7.886719 7.3125 Z M 7.882812 7.3125 "/>
</g>
</svg>
