<?xml version="1.0" encoding="UTF-8"?>
<svg xmlns="http://www.w3.org/2000/svg" xmlns:xlink="http://www.w3.org/1999/xlink" width="32px" height="32px" viewBox="0 0 32 32" version="1.1">
<g id="surface1">
<path style=" stroke:none;fill-rule:evenodd;fill:rgb(1.960784%,1.960784%,1.960784%);fill-opacity:1;" d="M 30 6 C 30 3.792969 28.207031 2 26 2 L 6 2 C 3.792969 2 2 3.792969 2 6 L 2 26 C 2 28.207031 3.792969 30 6 30 L 26 30 C 28.207031 30 30 28.207031 30 26 Z M 30 6 "/>
<path style=" stroke:none;fill-rule:nonzero;fill:rgb(100%,100%,100%);fill-opacity:1;" d="M 7.535156 24.140625 L 9.535156 24.140625 L 14.875 18.070312 L 19.519531 24.128906 L 24.949219 24.128906 L 17.824219 14.707031 L 23.855469 7.859375 L 21.855469 7.859375 L 16.898438 13.492188 L 12.648438 7.867188 L 7.046875 7.867188 L 13.941406 16.859375 L 7.527344 24.144531 Z M 10.089844 9.359375 L 11.910156 9.359375 L 21.941406 22.628906 L 20.265625 22.628906 L 10.097656 9.359375 Z M 10.089844 9.359375 "/>
</g>
</svg>
