<?xml version="1.0" encoding="UTF-8"?>
<svg version="1.1" xmlns="http://www.w3.org/2000/svg" width="512" height="512">
<path d="M0 0 C1.79951595 -0.00573832 1.79951595 -0.00573832 3.63538575 -0.01159257 C6.92530362 -0.02005305 10.21507642 -0.01971697 13.50499773 -0.01541197 C17.06887483 -0.01292609 20.63272665 -0.02198188 24.19659424 -0.02944946 C31.16355853 -0.04214763 38.13048418 -0.04399624 45.09745809 -0.0416492 C50.765866 -0.03986022 56.43426225 -0.04162807 62.10266876 -0.04587364 C63.31659858 -0.04676643 63.31659858 -0.04676643 64.55505224 -0.04767724 C66.19957286 -0.0488891 67.84409349 -0.05010324 69.48861411 -0.05131962 C84.88425352 -0.06217657 100.27987099 -0.06004156 115.67551163 -0.05393478 C129.72792329 -0.04876854 143.78026557 -0.0600166 157.83266351 -0.07903299 C172.29619242 -0.09845417 186.75968858 -0.10665983 201.2232306 -0.10290974 C209.3295255 -0.10100402 217.4357614 -0.10342354 225.54204559 -0.11762428 C232.4439871 -0.12959385 239.34583328 -0.13088104 246.24777624 -0.11883412 C249.76184698 -0.11298395 253.27574385 -0.11173732 256.78980255 -0.12383652 C292.20489144 -0.22142958 321.79612433 6.85110854 347.63970947 32.07319641 C367.9497506 52.65034475 377.74915696 80.27310258 377.65040588 108.87098694 C377.65423143 110.07066424 377.65805698 111.27034153 377.66199845 112.50637269 C377.67045893 115.79629056 377.67012285 119.08606336 377.66581786 122.37598467 C377.66333197 125.93986177 377.67238776 129.50371359 377.67985535 133.06758118 C377.69255351 140.03454546 377.69440212 147.00147112 377.69205508 153.96844503 C377.6902661 159.63685293 377.69203395 165.30524919 377.69627953 170.9736557 C377.69687471 171.78294225 377.6974699 172.59222879 377.69808313 173.42603917 C377.69929499 175.0705598 377.70050912 176.71508043 377.70172551 178.35960105 C377.71258246 193.75524046 377.71044744 209.15085793 377.70434066 224.54649857 C377.69917443 238.59891023 377.71042249 252.6512525 377.72943888 266.70365044 C377.74886005 281.16717936 377.75706571 295.63067552 377.75331563 310.09421754 C377.7514099 318.20051244 377.75382942 326.30674833 377.76803017 334.41303253 C377.77999973 341.31497404 377.78128693 348.21682022 377.76924 355.11876318 C377.76338984 358.63283392 377.7621432 362.14673078 377.7742424 365.66078949 C377.87183546 401.07587838 370.79929734 430.66711127 345.57720947 456.51069641 C325.00006113 476.82073754 297.37730331 486.6201439 268.77941895 486.52139282 C267.57974165 486.52521837 266.38006435 486.52904392 265.14403319 486.53298539 C261.85411533 486.54144587 258.56434252 486.54110979 255.27442122 486.5368048 C251.71054411 486.53431891 248.14669229 486.5433747 244.58282471 486.55084229 C237.61586042 486.56354045 230.64893476 486.56538906 223.68196085 486.56304202 C218.01355295 486.56125304 212.3451567 486.56302089 206.67675018 486.56726646 C205.46282036 486.56815925 205.46282036 486.56815925 204.22436671 486.56907007 C202.57984608 486.57028193 200.93532546 486.57149606 199.29080483 486.57271244 C183.89516542 486.5835694 168.49954795 486.58143438 153.10390732 486.5753276 C139.05149566 486.57016137 124.99915338 486.58140942 110.94675544 486.60042582 C96.48322653 486.61984699 82.01973037 486.62805265 67.55618834 486.62430257 C59.44989344 486.62239684 51.34365755 486.62481636 43.23737335 486.63901711 C36.33543184 486.65098667 29.43358566 486.65227387 22.53164271 486.64022694 C19.01757196 486.63437678 15.5036751 486.63313014 11.98961639 486.64522934 C-23.4254725 486.7428224 -53.01670539 479.67028428 -78.86029053 454.44819641 C-99.17033166 433.87104807 -108.96973801 406.24829024 -108.87098694 377.65040588 C-108.87481249 376.45072859 -108.87863803 375.25105129 -108.88257951 374.01502013 C-108.89103999 370.72510226 -108.89070391 367.43532946 -108.88639891 364.14540815 C-108.88391303 360.58153105 -108.89296881 357.01767923 -108.9004364 353.45381165 C-108.91313457 346.48684736 -108.91498318 339.5199217 -108.91263614 332.55294779 C-108.91084716 326.88453989 -108.91261501 321.21614363 -108.91686058 315.54773712 C-108.91745577 314.73845058 -108.91805096 313.92916403 -108.91866418 313.09535365 C-108.91987604 311.45083302 -108.92109018 309.8063124 -108.92230656 308.16179177 C-108.93316351 292.76615236 -108.9310285 277.37053489 -108.92492171 261.97489426 C-108.91975548 247.9224826 -108.93100354 233.87014032 -108.95001993 219.81774238 C-108.96944111 205.35421347 -108.97764677 190.89071731 -108.97389668 176.42717528 C-108.97199095 168.32088038 -108.97441048 160.21464449 -108.98861122 152.10836029 C-109.00058079 145.20641878 -109.00186798 138.3045726 -108.98982105 131.40262964 C-108.98397089 127.8885589 -108.98272426 124.37466204 -108.99482346 120.86060333 C-109.09241651 85.44551444 -102.0198784 55.85428155 -76.79779053 30.01069641 C-56.22064218 9.70065528 -28.59788436 -0.09875107 0 0 Z M-63.86029053 54.62788391 C-77.26677636 70.18150224 -82.76664133 89.85594277 -82.75073242 110.01106262 C-82.75370354 111.19069029 -82.75667467 112.37031796 -82.75973582 113.58569193 C-82.76689193 116.84738216 -82.76959326 120.10904021 -82.77033329 123.37073708 C-82.77219057 126.89377552 -82.77974136 130.41680271 -82.78646851 133.93983459 C-82.80002602 141.63852725 -82.80607275 149.33721468 -82.81047916 157.03591728 C-82.81324642 161.84845972 -82.8174847 166.66100017 -82.82198334 171.47354126 C-82.83417351 184.81314213 -82.84447275 198.1527414 -82.84785843 211.49234772 C-82.848078 212.3454357 -82.84829756 213.19852369 -82.84852378 214.07746282 C-82.84874206 214.93252915 -82.84896034 215.78759548 -82.84918523 216.6685729 C-82.84962869 218.40110366 -82.85007525 220.13363441 -82.8505249 221.86616516 C-82.85074633 222.72555028 -82.85096776 223.58493539 -82.8511959 224.47036248 C-82.85514034 238.38223969 -82.87258468 252.2940644 -82.89588442 266.20592135 C-82.91964447 280.50878443 -82.93206242 294.81162122 -82.93322635 309.11450434 C-82.93414059 317.13699358 -82.93982928 325.15941445 -82.95804596 333.18188477 C-82.97351001 340.01595081 -82.97853053 346.84992735 -82.97030786 353.68400759 C-82.96642328 357.16539008 -82.96722227 360.64659267 -82.9813652 364.12795258 C-83.07784964 392.72604999 -79.18843742 415.91615464 -58.92279053 437.51069641 C-37.6791659 457.73646576 -12.62175047 460.73390985 15.42827511 460.65287042 C18.94573089 460.64601475 22.46314387 460.65659305 25.98059082 460.66481018 C32.85171485 460.67808098 39.72274003 460.67529968 46.59386778 460.66657226 C52.18311079 460.65976973 57.77232629 460.65889004 63.36157227 460.66214371 C64.16006383 460.66260341 64.9585554 460.66306311 65.78124368 460.66353673 C67.40386471 460.66449601 69.02648573 460.66546865 70.64910674 460.66645451 C85.829153 460.67498891 101.00914473 460.66520499 116.18918204 460.64905341 C129.18639035 460.635652 142.18351824 460.63798065 155.1807251 460.65180969 C170.31012353 460.66790008 185.43947428 460.67416512 200.56888008 460.6649729 C202.18520227 460.66401735 203.80152447 460.66307424 205.41784668 460.66214371 C206.21290316 460.66168088 207.00795964 460.66121805 207.82710874 460.6607412 C213.40322421 460.65816167 218.97930918 460.66249982 224.55541992 460.66958237 C231.36002716 460.67803613 238.16453071 460.67563639 244.96912622 460.65974014 C248.43435267 460.65190916 251.89940687 460.6486762 255.36463165 460.65868759 C283.91332687 460.72125406 307.08489546 456.80156033 328.63970947 436.57319641 C348.86547882 415.32957178 351.86292291 390.27215636 351.78188348 362.22213078 C351.77502781 358.70467499 351.78560611 355.18726202 351.79382324 351.66981506 C351.80709404 344.79869103 351.80431274 337.92766586 351.79558532 331.05653811 C351.78878279 325.46729509 351.7879031 319.87807959 351.79115677 314.28883362 C351.79161647 313.49034205 351.79207617 312.69185048 351.7925498 311.8691622 C351.79350907 310.24654117 351.79448171 308.62392015 351.79546757 307.00129914 C351.80400197 291.82125288 351.79421805 276.64126116 351.77806647 261.46122384 C351.76466507 248.46401554 351.76699371 235.46688764 351.78082275 222.46968079 C351.79691314 207.34028235 351.80317818 192.2109316 351.79398596 177.0815258 C351.79303042 175.46520361 351.7920873 173.84888141 351.79115677 172.2325592 C351.79046253 171.03997448 351.79046253 171.03997448 351.78975426 169.82329714 C351.78717473 164.24718168 351.79151288 158.6710967 351.79859543 153.09498596 C351.8070492 146.29037872 351.80464945 139.48587517 351.7887532 132.68127966 C351.78092222 129.21605321 351.77768926 125.75099902 351.78770065 122.28577423 C351.85026713 93.73707901 347.93057339 70.56551043 327.70220947 49.01069641 C306.45858485 28.78492706 281.40116942 25.78748298 253.35114384 25.86852241 C249.83368805 25.87537807 246.31627508 25.86479977 242.79882812 25.85658264 C235.92770409 25.84331185 229.05667892 25.84609314 222.18555117 25.85482056 C216.59630815 25.86162309 211.00709265 25.86250279 205.41784668 25.85924911 C204.61935511 25.85878942 203.82086354 25.85832972 202.99817526 25.85785609 C201.37555424 25.85689682 199.75293322 25.85592417 198.1303122 25.85493831 C182.95026594 25.84640391 167.77027422 25.85618783 152.5902369 25.87233941 C139.5930286 25.88574082 126.5959007 25.88341217 113.59869385 25.86958313 C98.46929541 25.85349274 83.33994466 25.84722771 68.21053886 25.85641992 C66.59421667 25.85737547 64.97789447 25.85831858 63.36157227 25.85924911 C62.56651579 25.85971194 61.77145931 25.86017477 60.9523102 25.86065162 C55.37619474 25.86323115 49.80010977 25.858893 44.22399902 25.85181046 C37.41939178 25.84335669 30.61488823 25.84575643 23.81029272 25.86165269 C20.34506627 25.86948366 16.88001208 25.87271662 13.41478729 25.86270523 C-17.72359406 25.79446328 -41.76240507 31.37906692 -63.86029053 54.62788391 Z " fill="#000000" transform="translate(121.61029052734375,12.739303588867188)"/>
<path d="M0 0 C0.80717972 -0.01182816 1.61435944 -0.02365631 2.44599915 -0.0358429 C5.10775117 -0.06867243 7.7684789 -0.07168692 10.43041992 -0.0715332 C12.28741368 -0.08185223 14.14440345 -0.09291585 16.00138855 -0.10469055 C19.89263397 -0.12411542 23.78352005 -0.12754724 27.67480469 -0.12109375 C32.64851404 -0.11510316 37.62035344 -0.15929739 42.59367847 -0.21698284 C46.42947416 -0.25405405 50.26482239 -0.25887929 54.10077477 -0.25470924 C55.9335413 -0.25757314 57.76632706 -0.27158417 59.59891701 -0.2971859 C75.707952 -0.49855763 75.707952 -0.49855763 80.86401367 3.91772461 C82.49902344 5.75201416 82.49902344 5.75201416 83.84838867 7.56518555 C84.33525146 8.13279602 84.82211426 8.70040649 85.32373047 9.28521729 C86.63296115 10.81186787 87.83511885 12.38962608 89.03588867 14.00268555 C89.97589734 15.2316204 90.91736507 16.45944026 91.86010742 17.6862793 C92.58786377 18.63736572 92.58786377 18.63736572 93.33032227 19.60766602 C95.94246441 22.97597668 98.64846798 26.2671433 101.34838867 29.56518555 C105.85691307 35.08781351 110.29683092 40.65705018 114.68432617 46.27612305 C118.72757929 51.44120362 122.86686114 56.52517798 127.01464844 61.60644531 C130.48732349 65.86829464 133.90665174 70.16649656 137.28588867 74.50268555 C141.96163231 80.49863916 146.78217809 86.36662403 151.63476562 92.2199707 C155.95200415 97.4402351 160.16904811 102.72956109 164.29760742 108.1003418 C166.64436925 111.1312693 169.07077423 113.92197181 171.84838867 116.56518555 C172.49163086 115.74018555 173.13487305 114.91518555 173.79760742 114.06518555 C181.57621408 104.11335945 189.52738337 94.30897281 197.5144043 84.52416992 C203.63848529 77.01839263 209.72262536 69.48893433 215.68481445 61.85375977 C219.72709776 56.68951275 223.86606461 51.60690658 228.01245117 46.52612305 C231.50369463 42.24066307 234.94631035 37.92168745 238.34838867 33.56518555 C263.69683889 1.1381946 263.69683889 1.1381946 269.08276367 0.15893555 C273.96819117 -0.02313007 277.06811126 0.171393 280.91088867 3.37768555 C284.6633154 6.95352749 284.97887448 10.23323344 285.27416992 15.3347168 C284.1319796 21.31811749 278.59564676 26.45203597 274.78588867 31.06518555 C270.50050345 36.29367009 266.25813148 41.54864148 262.09838867 46.87768555 C258.22177785 51.83692855 254.28415084 56.73816941 250.28588867 61.6003418 C242.76434369 70.74914411 235.30237263 79.94038525 228.01293945 89.27539062 C224.51106714 93.74916214 220.94028896 98.16348652 217.34838867 102.56518555 C212.33480277 108.71308695 207.37638394 114.89878692 202.50854492 121.1628418 C200.66994976 123.52831387 198.79909958 125.86342613 196.90698242 128.1862793 C195.97070612 129.35418521 195.03450541 130.52215173 194.09838867 131.69018555 C193.655354 132.22281006 193.21231934 132.75543457 192.75585938 133.30419922 C190.42203232 136.07323361 190.42203232 136.07323361 190.06860352 139.51049805 C190.94869714 141.82949239 192.01786406 143.29330705 193.62182617 145.18237305 C194.19352539 145.86428711 194.76522461 146.54620117 195.35424805 147.2487793 C195.97106445 147.97194336 196.58788086 148.69510742 197.22338867 149.44018555 C198.51375995 150.97815091 199.8028076 152.51722772 201.09057617 154.05737305 C201.73091797 154.82146484 202.37125977 155.58555664 203.03100586 156.37280273 C205.53201798 159.38987539 207.94726142 162.46844693 210.34838867 165.56518555 C214.42646416 170.8071265 218.6120798 175.95038736 222.84838867 181.06518555 C227.56142715 186.75663018 232.19291868 192.49843202 236.73510742 198.3269043 C240.21692844 202.78607858 243.77086939 207.18252786 247.34838867 211.56518555 C251.39821051 216.52750942 255.4063848 221.51676808 259.34838867 226.56518555 C264.43436713 233.07747972 269.63935006 239.48884925 274.86010742 245.89331055 C277.83255697 249.54060149 280.77138436 253.21382855 283.70385742 256.89331055 C285.94724156 259.68834652 288.20930317 262.46749316 290.47387695 265.24536133 C296.09481222 272.14178523 301.65602093 279.07860713 307.12963867 286.0925293 C309.05200196 288.55538109 310.99190132 291.00325546 312.94213867 293.4440918 C313.70276611 294.40001221 313.70276611 294.40001221 314.47875977 295.37524414 C315.45237858 296.59823151 316.42911734 297.81874363 317.40942383 299.03637695 C321.30938444 303.95058665 322.38209057 307.26750319 321.84838867 313.56518555 C319.75216864 317.4581656 317.69107955 320.358332 313.84838867 322.56518555 C311.09502485 322.87573889 308.56479527 323.0160777 305.81030273 323.0168457 C305.00326904 323.02852783 304.19623535 323.04020996 303.36474609 323.05224609 C300.69771429 323.0858285 298.03123829 323.09656947 295.36401367 323.10424805 C293.50559291 323.11643118 291.64717411 323.12891727 289.78875732 323.14169312 C285.89159747 323.1641713 281.99463315 323.17372322 278.09741211 323.17602539 C273.11588534 323.18130157 268.13599722 323.23258812 263.15491104 323.29554176 C259.31485676 323.33651492 255.47519432 323.3456684 251.6349411 323.34614182 C249.79936553 323.35151171 247.963785 323.36831416 246.1284256 323.39699173 C229.98302879 323.62817823 229.98302879 323.62817823 224.83056641 319.21484375 C223.19651794 317.3795929 223.19651794 317.3795929 221.84838867 315.56518555 C220.93827889 314.50394778 220.02813078 313.44274287 219.11791992 312.3815918 C218.29129233 311.30275035 217.47245277 310.21790377 216.66088867 309.12768555 C215.72088 307.8987507 214.77941227 306.67093083 213.83666992 305.4440918 C213.35149902 304.81003418 212.86632812 304.17597656 212.36645508 303.52270508 C209.75431293 300.15439441 207.04830936 296.86322779 204.34838867 293.56518555 C199.83986428 288.04255759 195.39994643 282.47332091 191.01245117 276.85424805 C186.97272234 271.6936696 182.83694818 266.61422151 178.69311523 261.53710938 C175.11454549 257.14479289 171.587068 252.7166681 168.09838867 248.25268555 C164.22772511 243.30170862 160.29693869 238.40801665 156.30541992 233.5534668 C153.24835235 229.83541164 150.20210308 226.10871325 147.16088867 222.37768555 C146.62608887 221.72429199 146.09128906 221.07089844 145.5402832 220.39770508 C141.85537172 215.87391489 138.31659171 211.25700354 134.84838867 206.56518555 C131.05877627 210.20484925 127.79594676 214.02680624 124.59838867 218.19018555 C123.62268638 219.44606266 122.6461141 220.70126431 121.66870117 221.95581055 C120.9498877 222.87910156 120.9498877 222.87910156 120.21655273 223.82104492 C117.62565886 227.12392604 114.95198258 230.35818117 112.28588867 233.6003418 C104.76434369 242.74914411 97.30237263 251.94038525 90.01293945 261.27539062 C85.97029552 266.44001789 81.83104289 271.52305995 77.68432617 276.60424805 C74.19308272 280.88970802 70.75046699 285.20868365 67.34838867 289.56518555 C41.99993846 321.9921765 41.99993846 321.9921765 36.61401367 322.97143555 C31.72858617 323.15350117 28.62866609 322.95897809 24.78588867 319.75268555 C21.03346194 316.1768436 20.71790287 312.89713765 20.42260742 307.7956543 C21.56479775 301.81225361 27.10113058 296.67833512 30.91088867 292.06518555 C35.1962739 286.83670101 39.43864586 281.58172961 43.59838867 276.25268555 C47.4749995 271.29344254 51.4126265 266.39220169 55.41088867 261.5300293 C62.93243366 252.38122698 70.39440471 243.18998584 77.68383789 233.85498047 C81.18571021 229.38120895 84.75648838 224.96688458 88.34838867 220.56518555 C93.36197457 214.41728415 98.3203934 208.23158417 103.18823242 201.9675293 C105.02682758 199.60205722 106.89767776 197.26694497 108.78979492 194.9440918 C109.72607123 193.77618588 110.66227194 192.60821936 111.59838867 191.44018555 C112.04142334 190.90756104 112.48445801 190.37493652 112.94091797 189.82617188 C115.27474502 187.05713748 115.27474502 187.05713748 115.62817383 183.61987305 C114.7480802 181.3008787 113.67891328 179.83706405 112.07495117 177.94799805 C111.21740234 176.92512695 111.21740234 176.92512695 110.3425293 175.8815918 C109.72571289 175.15842773 109.10889648 174.43526367 108.47338867 173.69018555 C107.18301739 172.15222018 105.89396974 170.61314337 104.60620117 169.07299805 C103.96585937 168.30890625 103.32551758 167.54481445 102.66577148 166.75756836 C100.16475937 163.74049571 97.74951593 160.66192417 95.34838867 157.56518555 C91.27031319 152.3232446 87.08469754 147.17998374 82.84838867 142.06518555 C78.13535019 136.37374092 73.50385866 130.63193907 68.96166992 124.8034668 C65.4798489 120.34429251 61.92590795 115.94784323 58.34838867 111.56518555 C54.29856683 106.60286168 50.29039254 101.61360301 46.34838867 96.56518555 C41.26241022 90.05289137 36.05742729 83.64152185 30.83666992 77.23706055 C27.86422038 73.58976961 24.92539299 69.91654254 21.99291992 66.23706055 C19.74953578 63.44202457 17.48747417 60.66287793 15.22290039 57.88500977 C10.05485317 51.54424214 4.90577454 45.19149842 -0.10546875 38.72558594 C-2.42890301 35.73037705 -4.79269499 32.78796848 -7.24536133 29.8972168 C-16.58885976 18.75917343 -16.58885976 18.75917343 -16.49536133 12.4597168 C-15.71515569 8.1597198 -14.08300899 5.50760104 -11.04389954 2.43254089 C-7.34796541 0.0463256 -4.26086231 -0.01909859 0 0 Z M24.84838867 26.56518555 C28.48371621 31.44045157 32.14958019 36.28638024 35.91088867 41.06518555 C36.37495117 41.65557617 36.83901367 42.2459668 37.31713867 42.85424805 C41.49366122 48.14967982 45.74841689 53.37985784 50.01293945 58.60449219 C53.48631068 62.86689262 56.90611966 67.16581381 60.28588867 71.50268555 C64.3877679 76.76274244 68.59416905 81.92768918 72.84838867 87.06518555 C77.56136299 92.75668495 82.19291711 98.49843 86.73510742 104.3269043 C90.21692844 108.78607858 93.77086939 113.18252786 97.34838867 117.56518555 C101.85606081 123.08852211 106.29681635 128.65703152 110.68432617 134.27612305 C114.72757929 139.44120362 118.86686114 144.52517798 123.01464844 149.60644531 C126.48732349 153.86829464 129.90665174 158.16649656 133.28588867 162.50268555 C137.3877679 167.76274244 141.59416905 172.92768918 145.84838867 178.06518555 C150.56136299 183.75668495 155.19291711 189.49843 159.73510742 195.3269043 C163.21692844 199.78607858 166.77086939 204.18252786 170.34838867 208.56518555 C174.85606081 214.08852211 179.29681635 219.65703152 183.68432617 225.27612305 C187.72757929 230.44120362 191.86686114 235.52517798 196.01464844 240.60644531 C199.48732349 244.86829464 202.90665174 249.16649656 206.28588867 253.50268555 C210.96200398 259.49911577 215.78474683 265.36595421 220.63476562 271.22216797 C225.36531861 276.94677061 229.98015585 282.75384171 234.54370117 288.61206055 C235.30424805 289.5865918 236.06479492 290.56112305 236.84838867 291.56518555 C237.36739746 292.44102295 237.88640625 293.31686035 238.42114258 294.21923828 C241.52601638 297.22011661 243.21763202 297.13364125 247.40020752 297.13166809 C248.25451355 297.10586166 249.10881958 297.08005524 249.98901367 297.0534668 C250.87119568 297.04639206 251.75337769 297.03931732 252.66229248 297.0320282 C255.47519348 297.00407733 258.28609119 296.94133936 261.09838867 296.87768555 C263.00721405 296.85260349 264.91607069 296.82979016 266.82495117 296.80932617 C271.50020019 296.75424853 276.17395501 296.66797248 280.84838867 296.56518555 C277.21306114 291.68991953 273.54719716 286.84399086 269.78588867 282.06518555 C269.32182617 281.47479492 268.85776367 280.8844043 268.37963867 280.27612305 C264.20665676 274.98518047 259.9553818 269.75955082 255.69482422 264.5390625 C252.1155531 260.14619981 248.58760076 255.71734979 245.09838867 251.25268555 C241.2214554 246.29368902 237.28415858 241.39221109 233.28588867 236.5300293 C225.76434369 227.38122698 218.30237263 218.18998584 211.01293945 208.85498047 C207.51107027 204.38121296 203.94046171 199.96673983 200.34838867 195.56518555 C196.29863177 190.60280737 192.29039374 185.61360454 188.34838867 180.56518555 C183.26241022 174.05289137 178.05742729 167.64152185 172.83666992 161.23706055 C169.86422038 157.58976961 166.92539299 153.91654254 163.99291992 150.23706055 C161.74967952 147.44220365 159.48774231 144.66324929 157.22338867 141.88549805 C152.09111415 135.58895754 147.012534 129.25775711 142.01318359 122.85522461 C138.51115894 118.38143395 134.94053435 113.96682884 131.34838867 109.56518555 C127.29863177 104.60280737 123.29039374 99.61360454 119.34838867 94.56518555 C114.26241022 88.05289137 109.05742729 81.64152185 103.83666992 75.23706055 C100.86422038 71.58976961 97.92539299 67.91654254 94.99291992 64.23706055 C92.74895548 61.44130158 90.48628263 58.66145487 88.22119141 55.8828125 C82.47111788 48.82828943 76.79066346 41.72579197 71.18823242 34.5534668 C70.41608398 33.56733398 69.64393555 32.58120117 68.84838867 31.56518555 C68.32865479 30.68862305 67.8089209 29.81206055 67.2734375 28.90893555 C64.17035567 25.90988334 62.47690615 25.9967309 58.29656982 25.998703 C57.01511078 26.03741264 57.01511078 26.03741264 55.70776367 26.0769043 C54.82558167 26.08397903 53.94339966 26.09105377 53.03448486 26.0983429 C50.22158386 26.12629377 47.41068616 26.18903173 44.59838867 26.25268555 C42.68956329 26.2777676 40.78070665 26.30058094 38.87182617 26.32104492 C34.19657715 26.37612256 29.52282234 26.46239861 24.84838867 26.56518555 Z " fill="#000000" transform="translate(103.151611328125,94.434814453125)"/>
</svg>
